<?xml version="1.0" encoding="UTF-8"?>
<svg xmlns="http://www.w3.org/2000/svg" version="1.1" viewBox="0 0 2000 2000">
  <!-- Generator: Adobe Illustrator 29.7.1, SVG Export Plug-In . SVG Version: 2.1.1 Build 8)  -->
  <defs>
    <style>
      .st0 {
        fill: #4189c9;
      }

      .st1 {
        fill: #c3dcf3;
      }

      .st2 {
        font-family: TitilliumWeb-Bold, 'Titillium Web';
        font-size: 184.25px;
        font-weight: 700;
      }

      .st3 {
        fill: #ffffff;
      }

      .st4 {
        fill: #00a5b8;
      }

      .st5 {
        fill: #ffffff;
      }
    </style>
  </defs>
  <g id="Background">
    <text class="st2" transform="translate(275.36 1480.77)"><tspan class="st3" x="0" y="0">Smart</tspan><tspan class="st0" x="460" y="0"> </tspan><tspan class="st5" x="500" y="0">Smile Clinic</tspan></text>
  </g>
  <g id="Layer_1">
    <path class="st4" d="M1733.28,1559.64c-21.94-.4-48.57-.88-79.13-1.43-30.55-.5-65.02-1.06-102.63-1.49-18.8-.24-38.39-.48-58.66-.74-20.27-.19-41.23-.4-62.77-.6-43.09-.39-88.53-.85-135.53-1.04-23.5-.13-47.4-.26-71.58-.39-12.09-.07-24.26-.13-36.49-.2-12.23-.02-24.52-.05-36.86-.07-49.36-.09-99.49-.18-149.63-.26-50.14.09-100.28.18-149.63.27-24.68.01-49.16.13-73.35.28-24.19.13-48.08.26-71.58.39-47.01.19-92.44.67-135.53,1.05-43.09.33-83.83.86-121.43,1.34-37.6.42-72.07.99-102.63,1.49-30.55.55-57.19,1.03-79.13,1.42-43.87.98-68.94,1.54-68.94,1.54,0,0,25.07.56,68.94,1.54,21.94.39,48.57.87,79.13,1.42,30.55.5,65.02,1.06,102.63,1.49,37.6.48,78.34,1.01,121.43,1.34,43.09.38,88.53.86,135.53,1.05,23.5.13,47.4.26,71.58.39,24.19.15,48.67.27,73.35.28,49.36.09,99.49.18,149.63.27,50.14-.09,100.28-.18,149.63-.26,12.34-.02,24.63-.05,36.86-.07,12.23-.07,24.4-.13,36.49-.2,24.19-.13,48.08-.26,71.58-.39,47.01-.19,92.44-.65,135.53-1.04,21.54-.21,42.5-.41,62.77-.6,20.27-.26,39.86-.5,58.66-.74,37.6-.43,72.07-.99,102.63-1.49,30.55-.55,57.19-1.03,79.13-1.43,43.87-.99,68.94-1.55,68.94-1.55,0,0-25.07-.56-68.94-1.55Z"/>
    <g>
      <path class="st1" d="M1339.75,611.02c-1.87-15.76-5.69-31.26-11.66-46.06-20.81-51.62-69.34-92.67-124.68-98.55-28.28-3-56.69,2.79-84.51,8.71-63.04,13.42-120.35,20.73-182.22,2.02,50.74,29.34,115.23,28.18,171.18,18.48,27.99-4.85,56.13-11.98,84.41-9.35,45.6,4.25,86.77,34.99,107.85,75.65,21.08,40.65,23.02,89.83,9.64,133.63-26.12,85.43-105.51,149.3-121,237.28,25.73-77.54,96.65-131.78,131.31-205.76,16.84-35.95,24.32-76.82,19.68-116.04Z"/>
      <path class="st4" d="M848.17,491.87h-39.21v-39.22c0-19.11-15.49-34.6-34.6-34.6h0c-19.11,0-34.6,15.49-34.6,34.6v39.22h-39.22c-19.11,0-34.6,15.49-34.6,34.6h0c0,19.11,15.49,34.6,34.6,34.6h39.22v39.22c0,19.11,15.49,34.6,34.6,34.6h0c19.11,0,34.6-15.49,34.6-34.6v-39.22h39.21c19.11,0,34.6-15.49,34.6-34.6h0c0-19.11-15.49-34.6-34.6-34.6Z"/>
      <path class="st1" d="M619.02,542.44c-7.04-92.15,61.96-172.57,154.11-179.61,50.94-3.89,98.27,15.48,131.62,49.13-34.62-39.82-86.96-63.34-143.61-59.01-95.12,7.27-166.34,90.27-159.07,185.39,7.27,95.12,90.27,166.34,185.39,159.07,1.87-.14,3.72-.37,5.58-.57-89.79,3.89-167.11-64.12-174.01-154.4Z"/>
      <path class="st3" d="M1264.92,437.6c-53.95-18.92-114.08-15.92-168.54,1.51-21.86,6.99-43.36,16.31-66.25,17.99-15.41,1.13-30.69-1.24-45.86-5.06,1.3.63,2.6,1.26,3.91,1.88,17.56,4.59,35.23,7.54,53.12,6.12,28.53-2.26,54.92-15.46,82.64-22.62,65.23-16.87,138.61,2.35,187.2,49.02,48.59,46.68,70.74,119.22,56.51,185.08-13.57,62.8-56.13,114.54-91.24,168.35-48.09,73.71-83.91,155.41-105.54,240.72-3.44,13.57-8,28.63-14.95,41.06-9.01,16.12-33.58,9.83-34.01-8.63-.64-27.49-3.26-54.94-7.82-82.06-5.36-44.46-20.31-101.22-58.39-156.47-41.01-59.51-91.56-92.2-121.16-108.22,13.8,16.57,28.32,36.12,42.35,58.82.39.63.77,1.25,1.16,1.88,14.2,23.19,12.56,52.41-3.02,74.7-9.07,12.98-15.52,28.88-20.13,43.89-18.25,59.44-27.19,121.72-26.45,183.89.21,17.22-20.54,26.57-33.1,14.8-16.73-15.68-27.23-43.55-33.68-67.17-19.66-72.03-49.75-141.2-89.05-204.69-17.98-29.05-38.18-57.74-56.38-87.14-20.47-26.63-38.79-54.75-53.66-84.94,27.73,107.11,114.97,205.3,141.31,317.35,11.48,48.84,11.72,101.78,37.19,145.01,25.47,43.23,91.62,68.23,125.59,31.29,11.27-12.25,16.64-26.73,22.68-59.88,10.65-58.44,3.18-105.73,19.53-165.51,2.31-8.46,5.82-19.78,10.32-19.78,6.38,0,11.8,22.76,17.2,55.03,19.69,117.79,5.29,160.54,39.56,195.2,4.99,5.04,17.98,17.86,37.78,21.42,54.33,9.79,103.44-59.96,105.74-64.89,18.95-40.63,21.36-86.74,32.47-130.17,20.96-81.92,72.15-152.22,109.29-228.18,61.37-125.51,58.11-305.44-96.3-359.6Z"/>
    </g>
  </g>
</svg>